<?xml version="1.0" encoding="UTF-8"?>
<svg width="144px" height="24px" viewBox="0 0 144 24" version="1.1" xmlns="http://www.w3.org/2000/svg" xmlns:xlink="http://www.w3.org/1999/xlink">
    <!-- Generator: Sketch 41.2 (35397) - http://www.bohemiancoding.com/sketch -->
    <title>wordmark</title>
    <desc>Created with Sketch.</desc>
    <defs></defs>
    <g id="Page-1" stroke="none" stroke-width="1" fill="none" fill-rule="evenodd">
        <g id="sg-logo" transform="translate(-31.000000, 0.000000)" fill="#212121">
            <g id="wordmark" transform="translate(31.000000, 0.000000)">
                <path d="M3.236,14.52 C3.27,15.02 3.477,15.467 3.856,15.863 C4.234,16.259 4.803,16.458 5.561,16.458 C6.13,16.458 6.551,16.333 6.828,16.083 C7.102,15.834 7.241,15.536 7.241,15.192 C7.241,14.899 7.137,14.645 6.93,14.429 C6.723,14.214 6.37,14.055 5.871,13.951 L4.192,13.563 C2.952,13.288 2.047,12.81 1.479,12.129 C0.911,11.449 0.626,10.661 0.626,9.765 C0.626,9.196 0.746,8.659 0.988,8.15 C1.229,7.642 1.56,7.203 1.983,6.832 C2.405,6.462 2.904,6.165 3.482,5.941 C4.059,5.718 4.691,5.606 5.381,5.606 C6.276,5.606 7.034,5.731 7.654,5.981 C8.274,6.231 8.778,6.545 9.165,6.924 C9.553,7.303 9.841,7.703 10.03,8.125 C10.219,8.547 10.331,8.93 10.366,9.275 L7.499,9.92 C7.464,9.731 7.408,9.537 7.331,9.339 C7.254,9.141 7.129,8.956 6.957,8.783 C6.784,8.611 6.574,8.473 6.324,8.37 C6.074,8.267 5.769,8.215 5.407,8.215 C4.959,8.215 4.576,8.336 4.257,8.576 C3.939,8.818 3.779,9.119 3.779,9.48 C3.779,9.79 3.886,10.04 4.102,10.23 C4.317,10.419 4.597,10.548 4.942,10.617 L6.75,11.004 C8.007,11.263 8.95,11.745 9.579,12.451 C10.208,13.158 10.522,13.975 10.522,14.905 C10.522,15.423 10.422,15.93 10.225,16.429 C10.026,16.929 9.721,17.376 9.308,17.773 C8.895,18.17 8.378,18.488 7.758,18.729 C7.138,18.969 6.415,19.09 5.588,19.09 C4.624,19.09 3.815,18.952 3.16,18.677 C2.505,18.402 1.972,18.065 1.558,17.669 C1.144,17.273 0.839,16.847 0.641,16.391 C0.443,15.934 0.326,15.526 0.292,15.164 L3.236,14.52 Z" id="Shape"></path>
                <path d="M18.426,5.606 C19.373,5.606 20.256,5.773 21.074,6.109 C21.892,6.445 22.598,6.91 23.193,7.504 C23.787,8.098 24.252,8.809 24.588,9.635 C24.924,10.462 25.092,11.366 25.092,12.348 C25.092,13.33 24.924,14.229 24.588,15.048 C24.252,15.867 23.787,16.577 23.193,17.179 C22.599,17.783 21.892,18.251 21.074,18.587 C20.256,18.923 19.373,19.091 18.426,19.091 C17.478,19.091 16.595,18.923 15.778,18.587 C14.96,18.251 14.254,17.782 13.66,17.179 C13.065,16.577 12.6,15.867 12.264,15.048 C11.928,14.229 11.76,13.33 11.76,12.348 C11.76,11.367 11.928,10.462 12.264,9.635 C12.6,8.808 13.065,8.098 13.66,7.504 C14.254,6.91 14.96,6.445 15.778,6.109 C16.596,5.774 17.479,5.606 18.426,5.606 M18.426,15.965 C18.84,15.965 19.244,15.889 19.64,15.733 C20.036,15.579 20.381,15.35 20.674,15.049 C20.966,14.748 21.203,14.373 21.385,13.925 C21.566,13.477 21.656,12.952 21.656,12.349 C21.656,11.746 21.566,11.221 21.385,10.773 C21.203,10.326 20.967,9.951 20.674,9.649 C20.381,9.348 20.037,9.12 19.64,8.964 C19.244,8.809 18.84,8.732 18.426,8.732 C18.013,8.732 17.608,8.809 17.212,8.964 C16.816,9.119 16.472,9.348 16.179,9.649 C15.886,9.951 15.65,10.326 15.469,10.773 C15.288,11.221 15.198,11.746 15.198,12.349 C15.198,12.952 15.289,13.476 15.469,13.925 C15.65,14.373 15.886,14.748 16.179,15.049 C16.472,15.35 16.816,15.578 17.212,15.733 C17.608,15.889 18.013,15.965 18.426,15.965" id="Shape"></path>
                <path d="M35.555,18.705 C35.52,18.566 35.494,18.369 35.478,18.11 C35.46,17.851 35.452,17.593 35.452,17.335 C35.107,17.939 34.603,18.373 33.941,18.641 C33.277,18.907 32.61,19.041 31.939,19.041 C31.164,19.041 30.48,18.906 29.885,18.641 C29.291,18.373 28.787,18.016 28.374,17.568 C27.96,17.12 27.646,16.59 27.431,15.979 C27.216,15.368 27.108,14.717 27.108,14.029 L27.108,5.994 L30.544,5.994 L30.544,13.331 C30.544,14.055 30.729,14.661 31.1,15.152 C31.47,15.642 32.06,15.888 32.87,15.888 C33.645,15.888 34.24,15.656 34.653,15.191 C35.066,14.726 35.273,14.123 35.273,13.382 L35.273,5.994 L38.709,5.994 L38.709,16.405 C38.709,16.905 38.722,17.357 38.748,17.762 C38.774,18.167 38.804,18.481 38.838,18.705 L35.555,18.705 L35.555,18.705 Z" id="Shape"></path>
                <path d="M49.608,9.404 C49.264,9.335 48.92,9.3 48.575,9.3 C48.127,9.3 47.705,9.361 47.309,9.481 C46.913,9.602 46.568,9.8 46.276,10.075 C45.983,10.351 45.746,10.717 45.566,11.173 C45.385,11.63 45.295,12.203 45.295,12.891 L45.295,18.704 L41.858,18.704 L41.858,5.994 L45.191,5.994 L45.191,7.88 C45.38,7.466 45.626,7.127 45.927,6.859 C46.228,6.593 46.547,6.391 46.883,6.252 C47.218,6.114 47.555,6.02 47.89,5.968 C48.226,5.917 48.532,5.891 48.807,5.891 C48.945,5.891 49.078,5.895 49.207,5.904 C49.336,5.913 49.47,5.926 49.607,5.943 L49.607,9.404 L49.608,9.404 Z" id="Shape"></path>
                <path d="M57.101,8.784 C56.653,8.784 56.235,8.862 55.848,9.016 C55.46,9.172 55.12,9.4 54.828,9.701 C54.535,10.003 54.302,10.377 54.13,10.825 C53.957,11.273 53.872,11.781 53.872,12.349 C53.872,12.917 53.957,13.426 54.13,13.873 C54.302,14.322 54.539,14.699 54.84,15.01 C55.141,15.321 55.486,15.553 55.873,15.707 C56.261,15.862 56.678,15.939 57.126,15.939 C57.557,15.939 57.94,15.876 58.276,15.746 C58.611,15.617 58.9,15.449 59.142,15.242 C59.383,15.035 59.577,14.803 59.723,14.545 C59.869,14.287 59.977,14.037 60.046,13.796 L63.068,14.803 C62.93,15.338 62.702,15.86 62.383,16.366 C62.064,16.874 61.655,17.33 61.156,17.736 C60.656,18.14 60.071,18.467 59.399,18.716 C58.728,18.966 57.969,19.091 57.126,19.091 C56.196,19.091 55.322,18.923 54.504,18.587 C53.686,18.251 52.976,17.782 52.373,17.179 C51.77,16.577 51.297,15.866 50.953,15.048 C50.608,14.23 50.435,13.33 50.435,12.348 C50.435,11.367 50.603,10.462 50.939,9.635 C51.275,8.808 51.74,8.098 52.335,7.504 C52.929,6.91 53.627,6.445 54.427,6.109 C55.228,5.774 56.094,5.606 57.023,5.606 C57.885,5.606 58.655,5.731 59.335,5.981 C60.015,6.231 60.605,6.553 61.105,6.95 C61.605,7.346 62.009,7.802 62.319,8.319 C62.629,8.836 62.853,9.361 62.991,9.895 L59.917,10.928 C59.762,10.395 59.464,9.904 59.025,9.456 C58.586,9.008 57.944,8.784 57.101,8.784" id="Shape"></path>
                <path d="M76.346,15.062 C76.192,15.613 75.948,16.133 75.612,16.624 C75.276,17.114 74.866,17.541 74.383,17.902 C73.901,18.264 73.338,18.551 72.692,18.767 C72.046,18.983 71.337,19.09 70.561,19.09 C69.682,19.09 68.847,18.939 68.055,18.638 C67.263,18.336 66.565,17.893 65.963,17.308 C65.36,16.722 64.882,16.008 64.529,15.162 C64.176,14.32 64,13.363 64,12.295 C64,11.279 64.171,10.357 64.517,9.531 C64.861,8.704 65.322,8.003 65.899,7.426 C66.476,6.849 67.143,6.401 67.902,6.083 C68.659,5.764 69.443,5.604 70.252,5.604 C72.232,5.604 73.773,6.19 74.877,7.361 C75.979,8.532 76.529,10.142 76.529,12.192 C76.529,12.434 76.521,12.661 76.504,12.877 C76.486,13.092 76.479,13.217 76.479,13.251 L67.385,13.251 C67.402,13.664 67.502,14.048 67.683,14.4 C67.863,14.754 68.096,15.06 68.38,15.318 C68.664,15.576 68.996,15.779 69.375,15.925 C69.754,16.071 70.158,16.144 70.589,16.144 C71.398,16.144 72.03,15.962 72.487,15.601 C72.944,15.24 73.276,14.775 73.481,14.206 L76.346,15.062 Z M73.143,10.902 C73.125,10.592 73.063,10.286 72.95,9.985 C72.839,9.684 72.667,9.417 72.434,9.185 C72.2,8.952 71.909,8.763 71.555,8.617 C71.201,8.471 70.784,8.397 70.301,8.397 C69.854,8.397 69.458,8.475 69.114,8.63 C68.769,8.785 68.476,8.984 68.236,9.224 C67.994,9.466 67.81,9.732 67.681,10.025 C67.551,10.318 67.478,10.61 67.461,10.903 L73.143,10.903 L73.143,10.902 Z" id="Shape"></path>
                <path d="M80.92,18.575 C81.039,19.281 81.359,19.857 81.875,20.306 C82.393,20.753 83.064,20.977 83.891,20.977 C84.975,20.977 85.811,20.697 86.397,20.138 C86.983,19.577 87.276,18.677 87.276,17.438 L87.276,16.507 C87.016,16.921 86.594,17.296 86.008,17.632 C85.424,17.967 84.666,18.135 83.737,18.135 C82.891,18.135 82.108,17.981 81.385,17.67 C80.66,17.36 80.037,16.93 79.512,16.378 C78.987,15.827 78.573,15.177 78.272,14.428 C77.969,13.679 77.819,12.857 77.819,11.961 C77.819,11.117 77.965,10.321 78.258,9.571 C78.551,8.822 78.955,8.163 79.473,7.594 C79.989,7.026 80.61,6.578 81.332,6.251 C82.057,5.924 82.857,5.76 83.736,5.76 C84.752,5.76 85.552,5.941 86.136,6.302 C86.722,6.663 87.128,7.06 87.351,7.49 L87.351,5.994 L90.658,5.994 L90.658,17.335 C90.658,18.214 90.533,19.053 90.285,19.854 C90.035,20.656 89.642,21.361 89.109,21.973 C88.574,22.584 87.884,23.075 87.043,23.445 C86.199,23.815 85.182,24.001 83.994,24.001 C83.115,24.001 82.318,23.876 81.603,23.627 C80.888,23.377 80.263,23.041 79.73,22.619 C79.197,22.196 78.765,21.706 78.439,21.147 C78.111,20.586 77.904,20.005 77.818,19.403 L80.92,18.575 Z M84.33,15.191 C85.207,15.191 85.928,14.898 86.486,14.312 C87.047,13.727 87.326,12.943 87.326,11.961 C87.326,10.979 87.033,10.2 86.447,9.623 C85.861,9.046 85.156,8.757 84.33,8.757 C83.898,8.757 83.498,8.831 83.129,8.977 C82.758,9.123 82.434,9.338 82.158,9.623 C81.883,9.907 81.668,10.248 81.513,10.644 C81.359,11.04 81.281,11.48 81.281,11.961 C81.281,12.961 81.564,13.749 82.133,14.325 C82.701,14.902 83.434,15.191 84.33,15.191 L84.33,15.191 Z" id="Shape"></path>
                <path d="M101.379,9.404 C101.035,9.335 100.691,9.3 100.346,9.3 C99.899,9.3 99.477,9.361 99.08,9.481 C98.683,9.601 98.34,9.8 98.047,10.075 C97.754,10.351 97.518,10.717 97.336,11.173 C97.156,11.63 97.066,12.203 97.066,12.891 L97.066,18.704 L93.628,18.704 L93.628,5.994 L96.96,5.994 L96.96,7.88 C97.151,7.466 97.396,7.127 97.698,6.859 C97.999,6.593 98.317,6.391 98.653,6.252 C98.989,6.114 99.325,6.02 99.661,5.968 C99.997,5.917 100.302,5.891 100.577,5.891 C100.716,5.891 100.848,5.895 100.977,5.904 C101.108,5.913 101.241,5.926 101.377,5.943 L101.377,9.404 L101.379,9.404 Z" id="Shape"></path>
                <path d="M102.594,15.242 C102.594,14.674 102.694,14.17 102.891,13.73 C103.088,13.29 103.36,12.908 103.703,12.581 C104.049,12.254 104.449,11.996 104.904,11.807 C105.361,11.618 105.857,11.48 106.39,11.393 L109.517,10.928 C109.878,10.877 110.128,10.769 110.265,10.606 C110.404,10.442 110.472,10.249 110.472,10.024 C110.472,9.576 110.296,9.189 109.943,8.861 C109.589,8.534 109.052,8.37 108.328,8.37 C107.57,8.37 106.99,8.577 106.584,8.99 C106.18,9.404 105.951,9.886 105.9,10.437 L102.851,9.791 C102.902,9.291 103.058,8.792 103.316,8.292 C103.574,7.793 103.927,7.345 104.375,6.949 C104.824,6.553 105.375,6.23 106.029,5.98 C106.683,5.73 107.441,5.605 108.302,5.605 C109.3,5.605 110.154,5.738 110.861,6.005 C111.566,6.272 112.138,6.625 112.578,7.064 C113.017,7.503 113.336,8.016 113.533,8.601 C113.732,9.187 113.832,9.798 113.832,10.435 L113.832,16.687 C113.832,17.032 113.848,17.398 113.883,17.785 C113.918,18.172 113.951,18.478 113.987,18.703 L110.835,18.703 C110.8,18.531 110.771,18.294 110.745,17.992 C110.72,17.691 110.706,17.42 110.706,17.178 C110.378,17.678 109.909,18.117 109.298,18.496 C108.687,18.875 107.907,19.064 106.96,19.064 C106.288,19.064 105.681,18.957 105.14,18.74 C104.597,18.525 104.136,18.242 103.757,17.888 C103.378,17.534 103.089,17.13 102.892,16.674 C102.695,16.218 102.594,15.742 102.594,15.242 M107.684,16.508 C108.043,16.508 108.393,16.461 108.729,16.366 C109.065,16.271 109.362,16.108 109.622,15.876 C109.88,15.643 110.085,15.342 110.241,14.971 C110.395,14.602 110.473,14.131 110.473,13.564 L110.473,12.996 L107.606,13.434 C107.159,13.503 106.782,13.663 106.483,13.913 C106.18,14.163 106.03,14.538 106.03,15.036 C106.03,15.416 106.167,15.757 106.444,16.057 C106.719,16.357 107.131,16.508 107.684,16.508" id="Shape"></path>
                <path d="M116.775,23.613 L116.775,5.994 L120.109,5.994 L120.109,7.544 C120.402,7.044 120.882,6.614 121.554,6.252 C122.226,5.89 123.044,5.71 124.009,5.71 C124.939,5.71 125.765,5.877 126.489,6.213 C127.212,6.549 127.827,7.015 128.337,7.609 C128.845,8.203 129.228,8.901 129.485,9.702 C129.743,10.503 129.872,11.377 129.872,12.324 C129.872,13.289 129.731,14.179 129.446,14.998 C129.163,15.815 128.758,16.522 128.233,17.116 C127.706,17.71 127.075,18.177 126.333,18.511 C125.593,18.847 124.774,19.016 123.88,19.016 C123.001,19.016 122.247,18.865 121.618,18.564 C120.991,18.262 120.52,17.896 120.21,17.466 L120.21,23.614 L116.775,23.614 L116.775,23.613 Z M126.49,12.349 C126.49,11.212 126.183,10.334 125.572,9.713 C124.961,9.093 124.217,8.783 123.338,8.783 C122.889,8.783 122.477,8.865 122.098,9.029 C121.719,9.193 121.383,9.425 121.09,9.727 C120.797,10.029 120.57,10.398 120.406,10.837 C120.242,11.276 120.16,11.78 120.16,12.349 C120.16,12.917 120.242,13.422 120.406,13.859 C120.57,14.298 120.797,14.673 121.09,14.984 C121.383,15.295 121.719,15.531 122.098,15.694 C122.477,15.859 122.889,15.939 123.338,15.939 C124.217,15.939 124.961,15.626 125.572,14.997 C126.184,14.369 126.49,13.486 126.49,12.349 L126.49,12.349 Z" id="Shape"></path>
                <path d="M135.506,18.705 L132.07,18.705 L132.07,0 L135.506,0 L135.506,7.053 C135.92,6.553 136.445,6.197 137.082,5.981 C137.719,5.765 138.34,5.658 138.941,5.658 C139.752,5.658 140.453,5.791 141.046,6.058 C141.642,6.325 142.132,6.683 142.519,7.131 C142.908,7.579 143.195,8.112 143.384,8.733 C143.573,9.353 143.669,10.007 143.669,10.696 L143.669,18.705 L140.233,18.705 L140.233,11.29 C140.233,10.566 140.047,9.964 139.676,9.481 C139.307,8.999 138.707,8.758 137.881,8.758 C137.158,8.758 136.59,8.994 136.176,9.468 C135.764,9.942 135.539,10.532 135.504,11.238 L135.504,18.705 L135.506,18.705 Z" id="Shape"></path>
            </g>
        </g>
    </g>
</svg>